<svg xmlns="http://www.w3.org/2000/svg" width="1000" height="1000" opacity=".15"><path fill="#818285" d="M-960.471 853.004l661.208-1145.212L361.894 853.004zM85.373 264.03L746.58-881.183 1407.736 264.03z"/><path fill="#231F20" d="M-299.289 561.812L361.919-583.399l661.159 1145.211z"/><path fill="#595A5C" d="M632.508 978.83l661.207-1145.212L1954.871 978.83z"/><path fill="#595A5C" d="M-161.082 1584.527L500.125 439.316l661.158 1145.211z"/><path fill="#A8AAAD" d="M-328.299 295.049l251.095-434.898 251.079 434.898zm210.169 971.922l251.088-434.907 251.078 434.907z"/><path fill="#595A5C" d="M406.134 506.237L657.225 71.336l251.076 434.901z"/><path fill="#A8AAAD" d="M867.959 1168.555l251.096-434.901 251.078 434.901z"/><path fill="#595A5C" d="M376.862 1518.838l125.55-217.442 125.539 217.442z"/><path fill="#818285" d="M-255.47 1139.488L-4.378 704.584l251.084 434.904z"/><path fill="#231F20" d="M816.34 704.582l125.545-217.438 125.535 217.438zm-599.912 242.82l251.095-434.899 251.081 434.899z"/><path fill="#818285" d="M377.979-308.579L191.407 14.571h502.161l-186.552-323.15zm550.326 0l-61.026 105.688h251.086l-61.017-105.688z"/><path fill="#595A5C" d="M222.458 760.283l251.091-434.9 251.072 434.9z"/><path fill="#818285" d="M706.383 868l251.094-434.896L1208.559 868z"/><path fill="#595A5C" d="M-36.802 1021.67L87.321 806.676l124.123 214.994z"/><path fill="#A8AAAD" d="M423.733 177.447L547.859-37.548l124.12 214.995z"/><path fill="#231F20" d="M827.541 147.808L951.668-67.187l124.117 214.995z"/><path fill="#818285" d="M-62.491 770.746L-.428 663.25l62.059 107.496z"/><path fill="#595A5C" d="M439.052 1519.152l62.065-107.492 62.063 107.492zm217.257-402.527l62.064-107.492 62.059 107.492z"/><path fill="#231F20" d="M657.021 640.105l124.127-214.993 124.12 214.993z"/><path fill="#595A5C" d="M827.539 532.613l124.129-214.991 124.121 214.991z"/><path fill="#A8AAAD" d="M-30.651 118.336L93.478-96.656l124.116 214.992zm-124.937 378.308L-31.46 281.649 92.664 496.644z"/><path fill="#818285" d="M840.939-136.502l62.065-107.492 62.058 107.492zm-582.8 676.498l62.067-107.488 62.059 107.488zM196.338 217.77L320.466 2.776 444.583 217.77z"/><path fill="#D2D3D4" d="M347.372 775.516l124.126-214.995 124.119 214.995z"/><path fill="#A8AAAD" d="M681.492 668.014l62.063-107.493 62.058 107.493zm0-371.187l62.063-107.492 62.058 107.492zm188.565 632.339l124.129-214.994 124.117 214.994zM148.823 389.147L272.951 174.15l124.116 214.997zm-248.59 189.121l62.058-107.492L24.35 578.268z"/><path fill="#818285" d="M-99.767 578.268l62.058-107.492L24.35 578.268z"/><path fill="#595A5C" d="M133.251 617.484l47.305-81.931 47.303 81.931z"/><path fill="#A8AAAD" d="M759.725 458.936l47.302-81.935 47.305 81.935z"/><path fill="#D2D3D4" d="M568.055 183.007l47.304-81.934 47.303 81.934zM920.318 996.82l47.305-81.933 47.301 81.933z"/><path fill="#A8AAAD" d="M369.771 658.451l47.304-81.933 47.299 81.933z"/><path fill="#595A5C" d="M46.354 142.04l47.307-81.934 47.298 81.934zm666.068 702.71l47.307-81.934 47.3 81.934z"/><path fill="#A8AAAD" d="M-142.86 996.822l47.309-81.933 47.299 81.933z"/><path fill="#818285" d="M890.693 264.942L938 183.007l47.303 81.935zM63.131 1124.111l47.306-81.933 47.302 81.933z"/><path fill="#595A5C" d="M339.315 501.782l47.309-81.934 47.301 81.934zm61.522-219.222l23.652-40.968 23.651 40.968z"/><path fill="#231F20" d="M275.163 844.75l47.304-81.934 47.304 81.934z"/><path fill="#595A5C" d="M386.622 996.822l47.305-81.933 47.302 81.933zM1430.77 658.471l47.306-81.934 47.303 81.934z"/><path fill="#D2D3D4" d="M569.549 417.971l47.305-81.934 47.302 81.934z"/><path fill="#595A5C" d="M914.348 1520.453l23.65-40.965 23.652 40.965z"/><path fill="#A8AAAD" d="M774.385 976.336l23.65-40.963 23.653 40.963z"/><path fill="#231F20" d="M1137.707 1034.848l47.305-81.934 47.3 81.934z"/><path fill="#595A5C" d="M1587.68 932.836l23.652-40.963 23.65 40.963zM-41.895 444.109l47.308-81.935 47.298 81.935z"/><path fill="#818285" d="M-154.184 792.375l47.308-81.934 47.301 81.934zm968.161-63.193l47.306-81.936 47.299 81.936z"/><path fill="#A8AAAD" d="M941.309 688.211l23.652-40.963 23.65 40.963zm0-141.457l23.652-40.964 23.65 40.964zm-103.678 61.447l23.65-40.963 23.651 40.963z"/><path fill="#818285" d="M832.471 37.594l47.306-81.933 47.299 81.933zM719.178 264.942l47.306-81.935 47.303 81.935zM412.97 33.926l47.307-81.933 47.299 81.933zm-70.955-224.911l23.652-40.965 23.65 40.965z"/><path fill="#A8AAAD" d="M913.658 147.756l47.307-81.934 47.301 81.934z"/><path fill="#595A5C" d="M1095.164 229.69l47.307-81.934 47.3 81.934z"/><path fill="#D2D3D4" d="M930.512 486.13l47.306-81.934 47.301 81.934z"/><path fill="#595A5C" d="M1292.17 784.289l23.65-40.963 23.651 40.963z"/></svg>